<?xml version="1.0" encoding="UTF-8"?>
<!-- Generator: Adobe Illustrator 13.0.2, SVG Export Plug-In . SVG Version: 6.00 Build 14948)  -->
<!DOCTYPE svg PUBLIC "-//W3C//DTD SVG 1.0//EN" "http://www.w3.org/TR/2001/REC-SVG-20010904/DTD/svg10.dtd">
<svg version="1.0" id="svg2" xmlns:svg="http://www.w3.org/2000/svg" xmlns="http://www.w3.org/2000/svg" xmlns:xlink="http://www.w3.org/1999/xlink" x="0px" y="0px" width="475px" height="61px" viewBox="119.547 380.681 475 61" enable-background="new 119.547 380.681 475 61" xml:space="preserve">
<g id="layer1">
	<path id="path2398" d="M526.907,437.339c-1.1-0.609-2.285-1.539-2.633-2.065c-0.68-1.024,3.553-7.886,8.564-13.887   c5.697-6.819,10.289-13.314,10.986-15.536c0.379-1.214,4.041-5.207,8.137-8.872c5.029-4.5,7.445-7.385,7.445-8.886   c0-1.223,0.941-3.074,2.092-4.114c2.045-1.851,2.119-1.852,3.465-0.011c1.191,1.629,1.123,2.23-0.504,4.487   c-1.033,1.434-3.492,4.157-5.465,6.052c-6.072,5.834-6.52,5.769,20.23,2.95c10.654-1.122,12.439-1.102,13.223,0.153   c0.699,1.119,0.285,1.512-1.816,1.718c-1.498,0.147-4.523,0.713-6.725,1.258c-4.184,1.035-24.951,3.317-29.822,3.277   c-2.281-0.019-3.617,1.053-6.965,5.587c-2.277,3.086-5.813,7.479-7.855,9.761c-2.043,2.283-4.635,5.954-5.76,8.158   c-1.123,2.204-2.619,4.2-3.32,4.437c-1.008,0.339-0.979,0.79,0.137,2.143c1.219,1.477,1.219,1.905,0,3.106   C529.237,438.121,528.44,438.188,526.907,437.339z M123.992,430.31c-2.301-3.543-0.712-14.919,1.621-11.606   c0.665,0.943,0.779,0.545,0.376-1.311c-0.318-1.467-0.235-2.817,0.187-3c0.421-0.184,2.558-2.555,4.748-5.271   c7.535-9.342,15.476-15.839,21.451-17.553c2.859-0.82,3.076-0.723,2.495,1.109c-0.565,1.782-0.417,1.87,1.318,0.787   c1.075-0.671,2.744-0.918,3.709-0.547c2.236,0.858,1.554,4.881-1.684,9.934c-2.584,4.032-4.637,5.276-6.173,3.741   c-0.568-0.568-1.875-1.033-2.904-1.033c-1.782,0-1.788-0.083-0.121-1.75c1.666-1.665,1.666-1.766,0.001-2.087   c-2.325-0.447-8.242,3.564-14.534,9.857c-7.322,7.322-8.351,9.125-7.093,12.433c1.111,2.922,1.485,2.946,20.018,1.349   c1.925-0.166,3.712,0.148,3.972,0.698c0.729,1.546-4.6,3.662-12.917,5.129C127.781,433.071,125.704,432.945,123.992,430.31z    M125.907,427.56c0.34-0.55,0.168-1-0.382-1c-0.55,0-1.278,0.45-1.618,1s-0.168,1,0.382,1   C124.839,428.56,125.567,428.109,125.907,427.56z M192.5,429.732c-1.692-3.162-1.308-4.242,3.795-10.659   c4.744-5.966,6.326-6.914,15.612-9.36c7.104-1.872,8.99-2.087,10.444-1.188c1.192,0.736,1.208,1.146,0.101,2.481   c-1.135,1.367-1.089,1.507,0.314,0.969c2.949-1.132,1.728,1.181-2.358,4.464c-4.613,3.707-5.36,7.12-1.559,7.12   c1.343,0,2.697,0.414,3.01,0.92c0.904,1.464-4.445,5.08-7.514,5.08c-2.7,0-5.937-2.201-5.937-4.037   c0-0.492-1.981,0.442-4.403,2.077C197.995,431.654,193.932,432.408,192.5,429.732z M206.873,421.875   c3.472-1.656,4.306-3.551,2.686-6.104c-1.208-1.904-5.465,0.016-8.034,3.624c-1.165,1.636-2.118,3.242-2.118,3.569   C199.407,424.119,203.382,423.539,206.873,421.875z M216.907,414.56c0.34-0.55,0.168-1-0.382-1c-0.55,0-1.278,0.45-1.618,1   s-0.168,1,0.382,1C215.839,415.56,216.567,415.109,216.907,414.56z M167.37,427.718c-2.258-0.745-3.812-3.394-3.103-5.287   c1.396-3.726,6.268-8.759,7.879-8.141c1.178,0.452,1.444,0.189,0.994-0.983c-0.337-0.881,0.034-2.139,0.827-2.796   c0.792-0.658,1.44-1.992,1.44-2.965c0-1.054,1.012-2.023,2.5-2.396c1.375-0.346,2.5-1.1,2.5-1.676   c0-2.098,10.391-12.784,13.897-14.292c4.575-1.968,6.087-2.189,8.76-1.279c3.545,1.206,3.486,3.311-0.169,6.099   c-1.866,1.423-3.977,3.775-4.691,5.227c-0.827,1.682-4.007,4.051-8.774,6.535c-4.112,2.144-8.246,4.594-9.187,5.445   c-0.942,0.853-2.257,1.21-2.928,0.795c-0.741-0.458-0.959-0.335-0.559,0.313c0.363,0.587-1.143,2.773-3.345,4.861   c-4.465,4.23-4.966,5.897-2.004,6.672c1.1,0.287,2,1.188,2,2C173.407,427.416,169.818,428.527,167.37,427.718z M191.836,401.56   c1.689,0,4.963-2.944,6.502-5.849c1.209-2.282,1.154-2.329-1.949-1.647c-1.757,0.386-4.483,2.118-6.059,3.849   c-3.201,3.518-3.722,5.168-1.341,4.255C189.859,401.833,191.14,401.56,191.836,401.56z M231.373,424.971   c-0.896-2.357-0.451-3.119,4.963-8.5c3.401-3.38,6.831-5.911,8.009-5.911c1.134,0,2.062,0.255,2.062,0.565   c0,1.376-2.442,4.916-4.863,7.048c-2.143,1.888-2.309,2.329-0.887,2.355c3.004,0.054,1.906,2.434-2.206,4.781   C233.43,428.177,232.577,428.136,231.373,424.971z M380.075,426.893c-1.711-1.709-0.385-6.051,2.818-9.239   c3.08-3.064,5.449-8.492,4.234-9.706c-0.258-0.259-1.838,0.683-3.512,2.091c-3.438,2.893-17.406,9.521-20.064,9.521   c-4.01,0-5.766-6.41-2.498-9.121c1.433-1.189,1.9-1.027,3.598,1.246l1.951,2.613l6.152-2.18   c7.156-2.535,15.225-8.049,21.791-14.893c3.379-3.521,5.258-4.744,6.922-4.5c3.422,0.501,3.422,2.389-0.002,5.439   c-3.754,3.346-8.492,11.215-8.301,13.789c0.076,1.042-1.326,3.742-3.119,6s-4.029,5.343-4.973,6.855   C383.42,427.464,381.461,428.28,380.075,426.893z M250.074,425.893c-1.5-1.5-0.499-5.771,2.083-8.88   c1.513-1.821,3.425-4.227,4.25-5.345c0.825-1.119,2.737-2.325,4.25-2.68c2.539-0.596,2.75-0.411,2.75,2.395   c0,2.245-0.794,3.606-3.037,5.203c-2.249,1.602-2.875,2.677-2.41,4.141C259.104,424.329,252.704,428.522,250.074,425.893z    M274.893,423.544c-1.77-1.956-1.758-2.149,0.401-6.472c2.452-4.91,6.366-8.513,9.248-8.513c2.842,0,2.247,2.025-1.82,6.189   c-2.027,2.076-3.379,4.079-3.006,4.452c0.373,0.374,2.491,0.136,4.706-0.527c5.003-1.499,6.772-0.641,4.303,2.088   C284.342,425.604,277.926,426.896,274.893,423.544z M311.155,423.81c-1.434-1.605-4.295-10.171-3.563-10.665   c5.804-3.917,10.435-6.585,11.428-6.585c3.147,0,2.361,2.573-2.087,6.837l-4.762,4.563l2.813,2.42   c2.702,2.324,2.739,2.476,0.928,3.8C313.485,425.954,313.039,425.92,311.155,423.81z M460.04,423.857   c-1.326-1.324-0.504-6.904,1.367-9.298c2.35-3.002,2.545-4.423,0.5-3.639c-2.252,0.865-1.896-2.965,0.5-5.361   c2.545-2.544,9.754-2.806,10.682-0.389c0.676,1.762-1.682,6.46-5.211,10.389c-1.234,1.375-2.551,3.513-2.926,4.751   C464.237,422.68,461.114,424.934,460.04,423.857z M402.979,421.988c-0.865-0.864-1.572-2.454-1.572-3.532   c0-2.886,2.619-8.654,5.463-12.034c1.369-1.627,3.281-5.187,4.248-7.91c1.533-4.318,2.113-4.952,4.523-4.952   c1.521,0,2.766,0.479,2.766,1.066c0,1.174-1.945,5.145-2.908,5.934c-1.027,0.843-5.582,8.334-6.887,11.325   c-1.764,4.052-0.709,4.896,5.637,4.514c4.557-0.275,5.674-0.033,5.936,1.285c0.355,1.8-0.813,2.408-8.576,4.47   C405.01,423.904,404.893,423.902,402.979,421.988z M428.204,421.355c-0.988-0.987-1.779-2.809-1.76-4.046   c0.074-4.689,9.816-12.394,14.531-11.492c1.541,0.295,2.791-0.078,3.297-0.982c1.066-1.903,5.521-1.264,5.924,0.852   c0.367,1.924-4.729,9.746-9.373,14.392c-2.623,2.622-4.051,3.266-7.055,3.181C431.596,423.197,429.239,422.391,428.204,421.355z    M439.954,416.105c2.43-2.432,3.4-7.546,1.432-7.546c-1.287,0-9.979,7.95-9.979,9.128   C431.407,419.627,437.571,418.486,439.954,416.105z M481.409,420.562c-0.953-1.779-0.643-2.887,1.932-6.898   c1.688-2.628,3.066-5.95,3.066-7.382c0-3.27,0.701-3.646,4.75-2.546c4.113,1.115,4.086,2.654-0.154,8.572   c-1.871,2.613-3.559,5.877-3.75,7.252C486.795,422.873,482.995,423.524,481.409,420.562z M511.479,418.925   c-3.125-3.975-2.229-11.365,1.381-11.365c0.76,0,2.205-1.093,3.215-2.428c1.414-1.874,3.145-2.585,7.582-3.115   c6.742-0.806,7.41,0.337,1.617,2.771c-3.303,1.389-4.008,2.125-3.582,3.75c0.412,1.578,0.043,2.021-1.678,2.021   c-4.021,0-6.262,4.945-3.494,7.713c1.313,1.313,0.352,3.287-1.6,3.287C514.168,421.56,512.62,420.374,511.479,418.925z    M300.439,407.211c-0.018-0.467,0.693-2.376,1.579-4.242c2.562-5.399-0.621-9.519-4.584-5.933c-2.181,1.974-4.026,1.282-4.026-1.51   c0-2.713,4.957-5.073,8.607-4.097c3.314,0.886,5.026,4.473,4.03,8.442C305.4,402.435,300.5,408.852,300.439,407.211z"/>
</g>
</svg>